<svg xmlns="http://www.w3.org/2000/svg" viewBox="0 0 512 512"><path d="m 254.37558,511.50648 -2.8608,-9.96897 -4.74656,-9.58703 -6.34193,-7.49117 -7.99002,-5.4433 -9.69083,-3.44338 -3.93314,-0.78702 -7.51345,-0.40449 -53.15301,-0.30626 -58.960364,-0.47383 -7.540596,-1.72603 -6.191952,-2.25995 -6.882427,-3.71785 -6.250581,-4.74815 -5.582048,-5.72124 -4.876825,-6.63712 -4.134913,-7.49523 -3.356313,-8.29554 -2.541022,-9.03807 -1.689045,-9.72397 -0.963644,-13.60824 -0.0039,-0.74484 h 4.8439 4.843842 l 0.317532,2.50496 2.952588,13.19624 5.184422,10.38271 3.445729,4.1599 4.023582,3.48441 9.80725,4.9816 12.472251,2.43619 58.011814,0.28892 57.82789,0.28315 11.79149,2.2819 11.01762,5.6808 5.79549,5.50974 5.20484,7.38024 4.65318,9.31543 4.14049,11.31767 1.31079,3.71612 1.5876,-4.53377 4.42266,-11.79612 4.87716,-9.4859 4.78056,-6.39732 5.60135,-5.10873 6.43063,-3.82591 7.26844,-2.55002 4.27725,-0.97425 7.52133,-0.48539 54.8832,-0.31782 55.07073,-0.32359 7.69394,-0.48539 4.41451,-0.96269 5.87268,-1.85892 5.18932,-2.59453 4.52117,-3.34918 3.86821,-4.12408 3.23047,-4.91746 2.60792,-5.73049 3.40902,-13.97806 0.4442,-3.12036 h 4.8351 l 4.83268,0.20224 -0.96867,14.01505 -3.57251,16.85746 -6.25341,14.63219 -4.05971,6.35282 -4.64313,5.64208 -5.19761,4.8799 -5.72316,4.06571 -10.35421,4.79265 -11.67813,2.48935 -56.24775,0.27159 -56.79027,0.27736 -9.55757,1.59312 -8.06229,3.00537 -5.28228,3.19548 -4.64191,4.03567 -3.97907,4.85332 -3.2938,5.64727 -4.38652,12.5323 -0.64432,2.77423 h -2.37194 l -2.37189,-0.49694 h -0.001 m -13.14722,-191.43418 -7.26642,-1.42438 -7.06649,-2.79099 -7.30321,-4.99258 -6.10891,-6.74114 -6.28124,-12.56986 -2.23036,-9.35126 -0.90234,-10.17758 0.43708,-10.49539 1.78796,-10.30644 4.85636,-12.95528 7.42676,-11.10155 5.09071,-4.95039 5.83639,-4.17089 6.39597,-3.27811 6.76947,-2.27266 12.26064,-1.50471 11.35706,1.40069 6.07445,2.62226 4.73726,3.53699 1.1349,1.22966 -0.07,-14.52644 -0.07,-14.52702 -6.50565,-4.10559 -6.50565,-4.10616 -0.0775,-2.62342 0.0463,-2.62283 16.00038,-4.60427 14.12686,-3.99811 4.32761,-0.60558 h 2.57774 l 0.006,63.57448 0.26317,65.53337 0.92217,3.21108 2.05904,2.10855 3.63647,1.26664 5.65445,0.6859 2.64934,0.19069 -0.074,4.48292 -0.074,4.4835 -17.07733,3.32145 -19.44987,3.33358 h -2.37189 v -8.97739 -8.9774 l -1.40611,1.86818 -4.49674,5.2058 -4.88801,4.18648 -5.28134,3.1689 -5.67679,2.1519 -7.31097,1.17302 h -7.94157 0.002 m 22.86174,-16.98979 7.43435,-2.51998 6.09577,-3.83169 0.60996,-0.52584 v -26.68082 l -0.28919,-28.79862 -2.59567,-8.99185 -3.44097,-4.7545 -5.33833,-3.79991 -6.92281,-1.77167 -5.10554,-0.11557 -4.80616,0.86966 -4.45373,1.81212 -4.04826,2.71124 -3.58976,3.56762 -3.07818,4.37891 -4.40954,11.02065 -1.43166,7.56977 -0.57254,7.82921 0.29017,7.88701 1.1565,7.74311 2.46654,8.34813 3.5862,6.97516 4.63338,5.49299 5.60808,3.90103 8.5047,2.22991 9.69644,-0.54318 2.9e-4,5.8e-4 m 127.07653,16.90022 -10.88038,-1.67055 -10.02137,-2.97532 -9.08505,-4.2512 -8.07138,-5.49704 -5.68102,-5.30635 -4.93231,-6.06737 -4.15453,-6.75327 -3.34768,-7.36405 -2.51177,-7.89856 -1.6468,-8.35737 -0.75277,-8.74048 0.17034,-9.04789 1.33701,-10.71093 2.466,-9.87536 3.61576,-9.10395 4.78627,-8.39782 8.15577,-10.02098 9.15784,-7.75982 10.30309,-5.90332 11.44796,-4.0467 12.59246,-2.18997 18.83967,0.43338 9.30699,1.68482 8.50981,2.54783 7.47955,3.32521 6.21627,4.01695 1.0165,0.80031 v 15.41401 15.41401 h -5.39446 -5.3944 l -0.3372,-1.4215 -4.05209,-11.18881 -3.32109,-5.68096 -4.04106,-4.85569 -4.61979,-3.8878 -5.05723,-2.77741 -7.71185,-2.1189 -8.18616,-0.44725 -9.01707,1.50904 -7.94871,3.33313 -6.86305,5.14755 -5.76009,6.95211 -4.02091,7.3744 -3.05741,8.45907 -2.03682,9.34432 -0.95913,10.02908 0.26484,14.79224 1.95813,13.41929 3.59829,11.80479 5.18536,9.94991 4.91423,5.82352 5.44692,4.80015 9.74222,4.66725 11.12815,1.82773 12.42888,-0.97483 5.12129,-1.63067 4.43417,-2.4021 2.27681,-1.54863 0.0769,-13.94744 -0.36247,-16.96205 -0.86631,-3.47169 -1.59138,-2.29404 -4.75452,-2.8979 -7.75012,-1.35562 -2.7785,-0.17913 v -4.69961 -4.69904 H 435.58864 465 v 4.70019 4.70077 l -2.64645,0.18491 -6.1599,0.90837 -4.20682,1.88146 -2.56808,3.0857 -1.24368,4.5199 -0.24408,18.2622 -0.0116,16.4391 -1.1589,0.79685 -4.46402,2.68814 -14.72542,6.38691 -16.92428,3.57917 -19.48225,0.38138 h 0.002 m -278.29476,-0.2947 -10.21878,-1.55209 -9.144547,-2.75516 -7.951528,-3.91143 -6.639701,-5.02205 -4.166337,-4.64299 -3.47244,-5.42076 -2.676549,-6.00843 -1.778663,-6.40714 -1.067904,-10.20531 -0.293379,-36.10547 -0.163683,-39.13332 -0.606261,-1.60526 -2.933009,-4.33707 -5.336711,-2.31103 -9.082348,-1.0875 -0.340089,-4.79611 v -4.73891 h 31.173687 31.173692 v 4.73891 l -0.33894,4.74237 -8.48488,0.94246 -5.132842,2.03425 -3.021776,3.32006 -0.848961,2.15143 -0.428119,4.80987 -0.17322,33.94023 0.282251,38.59251 1.351094,7.4149 2.313401,6.39848 3.259822,5.36875 4.19036,4.3269 5.10502,3.27118 6.00378,2.20275 6.88667,1.12159 h 7.75367 l 7.65228,-0.90317 6.39202,-1.6925 5.35526,-2.56275 4.54203,-3.51445 3.22057,-3.65082 2.52736,-4.22693 3.41308,-11.08711 0.69469,-39.5396 -0.19607,-38.13885 -1.30284,-4.08016 -2.40687,-2.93655 -3.6961,-1.94093 -5.17055,-1.09339 -4.29999,-0.43339 -2.1008,-0.16757 v -4.71637 -4.71579 h 25.75192 25.75193 v 4.7389 l -0.33893,4.74411 -3.47291,0.26581 -8.6333,1.77693 -2.66292,1.63068 -1.77176,2.21655 -1.00766,2.12913 -0.50603,4.78628 -0.32615,37.15906 -0.30735,36.88903 -1.30813,9.44025 -2.38816,6.93876 -3.51416,6.39269 -4.55963,5.72587 -5.52456,4.93768 -6.8334,4.10963 -7.61981,3.28794 -13.85517,2.83086 h -16.69155 l 8.6e-4,0.0578 M 48.359075,110.71807 49.326941,97.380261 51.49371,85.833826 l 3.374784,-10.56277 4.553786,-9.505719 5.703772,-8.375397 10.62663,-10.036007 9.536307,-5.278264 11.184264,-3.405586 60.180747,-0.731551 53.68696,-0.311459 7.57465,-0.453608 4.28654,-0.894099 7.55961,-2.492244 6.5979,-3.716928 5.60562,-4.919886 4.58274,-6.101115 3.70202,-7.618594 2.78976,-8.7800613 0.6361,-2.650573696809 2.30671,0.07511981681 2.30671,0.07511981 0.23482,1.08345887 3.48623,11.0530135 5.06748,9.394022 8.98633,8.804619 10.43982,4.904168 12.73715,2.26573 57.11474,0.271587 56.51901,0.416048 7.8866,1.623628 7.35962,2.737828 6.79066,3.813602 6.17975,4.851006 5.52687,5.8501 4.83203,6.810767 4.09523,7.733064 3.31647,8.617052 3.29436,14.082884 1.21899,14.217639 v 3.45262 h -4.74378 l -4.74384,-0.28892 -0.56392,-3.99464 -3.48081,-13.556123 -2.63649,-5.562391 -3.25484,-4.777735 -3.88887,-4.012438 -4.53864,-3.266383 -5.20412,-2.539801 -5.88531,-1.832404 -4.02693,-0.857059 -7.4688,-0.433961 -54.33582,-0.304524 -55.03748,-0.325327 -7.79389,-0.480189 -4.41144,-0.947376 -7.44782,-2.542864 -6.54847,-3.839662 -5.69087,-5.166972 -4.87503,-6.524907 -4.85667,-9.447703 -4.48306,-11.870722 -1.53213,-4.714057 -1.00396,3.224374 -3.49312,9.959962 -3.79924,8.381349 -4.15186,6.892069 -4.55096,5.492356 -9.03338,6.647988 -10.95843,3.88381 -12.07589,1.076929 -53.4549,0.288923 -55.095322,0.327637 -7.545729,0.521216 -4.353055,1.043357 -9.465247,3.764369 -7.503281,5.894363 -5.6175,8.105659 -3.807902,10.398027 -1.89218,10.64217 -5.8e-5,0.74426 h -4.879355 -4.879296 l 0.0011,-1.4215 -0.0078,0.004" fill="#001489" /></svg>
